{"glyphs":{"0":{"x_min":40,"x_max":816,"ha":856,"o":"m 428 13 q 321 13 232 -39 q 143 -92 92 -181 q 40 -271 40 -376 l 40 -376 q 40 -478 93 -567 q 145 -656 235 -708 q 324 -761 428 -761 l 428 -761 q 533 -761 622 -708 q 711 -656 764 -567 q 816 -478 816 -373 l 816 -373 q 816 -269 764 -180 q 712 -92 623 -39 q 534 13 428 13 l 428 13 z m 428 -16 q 524 -16 606 -64 q 687 -113 735 -195 q 783 -277 783 -374 l 783 -374 q 783 -470 735 -552 q 687 -635 606 -683 q 524 -732 428 -732 l 428 -732 q 332 -732 251 -683 q 169 -635 121 -552 q 73 -470 73 -374 l 73 -374 q 73 -277 121 -195 q 169 -113 251 -64 q 332 -16 428 -16 l 428 -16 z"},"1":{"x_min":15,"x_max":166,"ha":241,"o":"m 133 0 l 133 -719 l 15 -719 l 15 -748 l 166 -748 l 166 0 l 133 0 z"},"2":{"x_min":28,"x_max":589,"ha":637,"o":"m 36 0 l 385 -221 q 473 -276 515 -337 q 556 -399 556 -480 l 556 -480 q 556 -548 526 -605 q 496 -662 442 -696 q 387 -730 317 -730 l 317 -730 q 246 -730 188 -694 q 129 -658 95 -597 q 61 -536 61 -462 l 61 -462 l 28 -462 q 28 -545 66 -613 q 104 -681 170 -720 q 236 -759 317 -759 l 317 -759 q 396 -759 458 -721 q 520 -683 555 -619 q 589 -555 589 -479 l 589 -479 q 589 -316 412 -203 l 412 -203 l 140 -29 l 586 -29 l 586 0 l 36 0 z"},"3":{"x_min":30,"x_max":544,"ha":589,"o":"m 286 10 q 213 10 155 -22 q 96 -55 63 -110 q 30 -165 30 -231 l 30 -231 l 30 -252 l 61 -252 l 61 -236 q 61 -176 89 -126 q 117 -76 169 -47 q 220 -18 285 -18 l 285 -18 q 351 -18 403 -44 q 454 -71 483 -118 q 511 -165 511 -224 l 511 -224 q 511 -311 471 -369 q 431 -428 351 -449 l 351 -449 q 393 -475 414 -512 q 435 -550 435 -591 l 435 -591 q 435 -629 418 -661 q 400 -694 367 -713 q 334 -733 290 -733 l 290 -733 q 244 -733 208 -712 q 172 -691 152 -655 q 131 -619 129 -575 l 129 -575 l 97 -575 q 99 -627 123 -669 q 147 -712 191 -736 q 234 -761 290 -761 l 290 -761 q 343 -761 383 -737 q 423 -713 445 -673 q 467 -634 467 -591 l 467 -591 q 467 -552 450 -517 q 433 -482 399 -457 l 399 -457 q 471 -429 508 -369 q 544 -309 544 -219 l 544 -219 q 544 -156 511 -103 q 478 -51 419 -20 q 360 10 286 10 l 286 10 z"},"4":{"x_min":0,"x_max":488,"ha":503,"o":"m 401 -120 l 488 -120 l 488 -91 l 401 -91 l 401 0 l 368 0 l 368 -91 l 0 -91 l 401 -760 l 401 -120 z m 50 -120 l 368 -120 l 368 -645 l 50 -120 z"},"5":{"x_min":45,"x_max":604,"ha":649,"o":"m 319 10 q 256 10 199 -17 q 141 -45 100 -93 q 59 -142 45 -202 l 45 -202 l 76 -202 q 100 -121 168 -69 q 236 -18 319 -18 l 319 -18 q 388 -18 446 -52 q 504 -87 538 -145 q 572 -204 572 -273 l 572 -273 q 572 -342 541 -401 q 509 -460 456 -494 q 402 -529 339 -529 l 339 -529 q 278 -529 225 -499 q 172 -469 131 -416 l 131 -416 l 96 -416 l 131 -750 l 521 -750 l 521 -721 l 158 -721 l 131 -464 q 170 -509 224 -533 q 278 -557 339 -557 l 339 -557 q 412 -557 473 -518 q 533 -480 569 -415 q 604 -350 604 -273 l 604 -273 q 604 -196 566 -131 q 527 -66 462 -28 q 396 10 319 10 l 319 10 z"},"6":{"x_min":31,"x_max":598,"ha":631,"o":"m 316 12 q 239 12 174 -26 q 108 -64 70 -128 q 31 -192 31 -268 l 31 -268 q 31 -381 134 -499 l 134 -499 l 353 -750 l 391 -750 l 181 -515 q 207 -533 247 -544 q 287 -555 324 -555 l 324 -555 q 396 -555 460 -516 q 523 -477 561 -411 q 598 -345 598 -269 l 598 -269 q 598 -193 560 -128 q 522 -64 458 -26 q 393 12 316 12 l 316 12 z m 316 -16 q 384 -16 441 -50 q 498 -84 532 -142 q 565 -201 565 -270 l 565 -270 q 565 -339 531 -398 q 497 -457 440 -491 q 383 -526 316 -526 l 316 -526 q 249 -526 191 -491 q 133 -456 99 -397 q 64 -338 64 -270 l 64 -270 q 64 -201 98 -142 q 132 -84 190 -50 q 248 -16 316 -16 l 316 -16 z"},"7":{"x_min":20,"x_max":515,"ha":535,"o":"m 97 0 l 468 -721 l 20 -721 l 20 -750 l 515 -750 l 129 0 l 97 0 z"},"8":{"x_min":30,"x_max":539,"ha":569,"o":"m 285 14 q 216 14 158 -20 q 99 -55 65 -113 q 30 -171 30 -238 l 30 -238 q 30 -320 81 -386 q 131 -452 210 -476 l 210 -476 q 172 -495 148 -530 q 124 -565 124 -609 l 124 -609 q 124 -650 145 -685 q 166 -720 202 -740 q 238 -760 280 -760 l 280 -760 q 322 -760 358 -740 q 394 -720 415 -685 q 436 -650 436 -609 l 436 -609 q 436 -567 414 -533 q 392 -499 353 -478 l 353 -478 q 407 -465 449 -430 q 491 -395 515 -345 q 539 -295 539 -238 l 539 -238 q 539 -170 505 -112 q 471 -54 413 -20 q 354 14 285 14 l 285 14 z m 280 -488 q 312 -488 341 -505 q 369 -522 386 -550 q 403 -578 403 -610 l 403 -610 q 403 -642 386 -670 q 369 -698 341 -714 q 312 -731 280 -731 l 280 -731 q 248 -731 220 -714 q 191 -698 174 -670 q 157 -642 157 -610 l 157 -610 q 157 -578 174 -550 q 191 -522 220 -505 q 248 -488 280 -488 l 280 -488 z m 285 -15 q 344 -15 395 -45 q 446 -75 476 -126 q 506 -177 506 -237 l 506 -237 q 506 -296 476 -347 q 446 -399 396 -429 q 345 -459 286 -459 l 286 -459 q 227 -459 176 -429 q 124 -399 94 -347 q 63 -296 63 -237 l 63 -237 q 63 -178 93 -126 q 123 -75 175 -45 q 226 -15 285 -15 l 285 -15 z"},"9":{"x_min":31,"x_max":598,"ha":631,"o":"m 313 -762 q 390 -762 456 -724 q 521 -686 560 -622 q 598 -558 598 -482 l 598 -482 q 598 -369 495 -251 l 495 -251 l 276 0 l 238 0 l 448 -235 q 422 -217 382 -206 q 342 -195 305 -195 l 305 -195 q 233 -195 170 -234 q 106 -273 69 -339 q 31 -405 31 -481 l 31 -481 q 31 -557 69 -621 q 107 -686 172 -724 q 236 -762 313 -762 l 313 -762 z m 313 -734 q 245 -734 188 -700 q 131 -666 98 -607 q 64 -549 64 -480 l 64 -480 q 64 -411 98 -352 q 132 -293 189 -258 q 246 -224 313 -224 l 313 -224 q 380 -224 438 -259 q 496 -294 531 -353 q 565 -412 565 -480 l 565 -480 q 565 -549 531 -607 q 497 -666 439 -700 q 381 -734 313 -734 l 313 -734 z"}," ":{"x_min":0,"x_max":0,"ha":220,"o":""},"!":{"x_min":50,"x_max":120,"ha":170,"o":"m 69 -100 l 69 -750 l 102 -750 l 102 -100 l 69 -100 z m 85 9 q 71 9 61 -1 q 50 -11 50 -26 l 50 -26 q 50 -40 61 -50 q 71 -60 85 -60 l 85 -60 q 99 -60 110 -50 q 120 -40 120 -26 l 120 -26 q 120 -11 110 -1 q 99 9 85 9 l 85 9 z"},"\"":{"x_min":70,"x_max":205,"ha":275,"o":"m 70 -631 l 70 -810 l 103 -810 l 103 -631 l 70 -631 z m 172 -631 l 172 -810 l 205 -810 l 205 -631 l 172 -631 z"},"#":{"x_min":15,"x_max":657,"ha":672,"o":"m 657 -467 l 508 -467 l 439 -312 l 657 -312 l 657 -283 l 427 -283 l 302 0 l 270 0 l 395 -283 l 209 -283 l 84 0 l 53 0 l 177 -283 l 15 -283 l 15 -312 l 190 -312 l 257 -467 l 15 -467 l 15 -496 l 271 -496 l 381 -748 l 414 -748 l 304 -496 l 489 -496 l 599 -748 l 632 -748 l 522 -496 l 657 -496 l 657 -467 z m 407 -312 l 476 -467 l 290 -467 l 222 -312 l 407 -312 z"},"$":{"x_min":62,"x_max":480,"ha":507,"o":"m 480 -200 q 480 -143 454 -99 q 427 -55 380 -30 q 333 -5 274 -2 l 274 -2 l 274 67 l 241 67 l 241 -1 q 125 -7 62 -100 l 62 -100 l 62 -151 q 87 -99 132 -67 q 176 -35 239 -29 l 239 -29 l 239 -431 q 194 -457 168 -476 q 142 -495 123 -522 l 123 -522 q 97 -560 97 -609 l 97 -609 q 97 -669 135 -705 q 173 -741 234 -746 l 234 -746 l 234 -813 l 267 -813 l 267 -747 q 350 -741 399 -682 l 399 -682 l 399 -633 q 378 -669 344 -692 q 310 -715 269 -719 l 269 -719 l 269 -448 q 354 -404 411 -355 l 411 -355 q 447 -323 464 -285 q 480 -247 480 -200 l 480 -200 z m 130 -610 q 130 -567 155 -534 q 179 -501 236 -467 l 236 -467 l 236 -720 q 190 -716 160 -686 q 130 -657 130 -610 l 130 -610 z m 272 -28 q 320 -30 361 -51 q 401 -73 425 -111 q 449 -149 449 -198 l 449 -198 q 449 -243 433 -275 q 417 -308 380 -338 q 343 -369 273 -410 l 273 -410 q 273 -410 273 -410 q 272 -410 272 -411 l 272 -411 l 272 -28 z"},"%":{"x_min":20,"x_max":672,"ha":692,"o":"m 178 -435 q 135 -435 99 -457 q 63 -480 42 -518 q 20 -556 20 -599 l 20 -599 q 20 -642 42 -679 q 64 -717 102 -739 q 139 -761 184 -761 l 184 -761 q 229 -761 266 -739 q 303 -717 325 -679 q 347 -642 347 -599 l 347 -599 q 347 -556 326 -518 q 304 -480 268 -457 q 231 -435 188 -435 l 188 -435 l 178 -435 z m 35 0 l 592 -750 l 631 -750 l 72 0 l 35 0 z m 184 -464 q 219 -464 250 -482 q 280 -500 298 -531 q 315 -562 315 -597 l 315 -597 q 315 -651 277 -692 l 277 -692 q 238 -732 184 -732 l 184 -732 q 149 -732 118 -713 q 87 -695 69 -664 q 50 -633 50 -598 l 50 -598 q 50 -563 69 -532 q 87 -501 118 -482 q 149 -464 184 -464 l 184 -464 z m 501 11 q 459 11 423 -11 q 386 -34 365 -72 q 343 -110 343 -153 l 343 -153 q 343 -196 365 -233 q 387 -271 425 -293 q 463 -315 508 -315 l 508 -315 q 553 -315 591 -293 q 628 -271 650 -233 q 672 -196 672 -153 l 672 -153 q 672 -110 650 -72 q 628 -34 591 -11 q 554 11 511 11 l 511 11 l 501 11 z m 508 -18 q 543 -18 574 -36 q 604 -55 622 -86 q 640 -117 640 -152 l 640 -152 q 640 -187 622 -218 q 604 -249 574 -267 q 543 -286 508 -286 l 508 -286 q 473 -286 443 -267 q 412 -249 394 -218 q 375 -187 375 -152 l 375 -152 q 375 -117 394 -86 q 412 -55 443 -36 q 473 -18 508 -18 l 508 -18 z"},"&":{"x_min":35,"x_max":681,"ha":696,"o":"m 284 14 q 217 14 160 -18 q 103 -50 69 -106 q 35 -163 35 -232 l 35 -232 q 35 -317 85 -384 q 135 -452 216 -476 l 216 -476 q 177 -494 153 -531 q 128 -569 128 -613 l 128 -613 q 128 -653 149 -686 q 169 -720 206 -740 q 242 -760 286 -760 l 286 -760 q 354 -760 400 -708 l 400 -708 l 400 -655 q 385 -689 353 -710 q 320 -732 280 -732 l 280 -732 q 250 -732 222 -715 q 194 -698 177 -670 q 160 -642 160 -610 l 160 -610 q 160 -578 177 -550 q 194 -522 222 -505 q 250 -488 283 -488 l 283 -488 l 297 -488 l 297 -460 l 289 -460 q 230 -460 179 -429 q 127 -398 97 -345 q 66 -293 66 -231 l 66 -231 q 66 -170 96 -120 q 126 -71 177 -43 q 228 -15 287 -15 l 287 -15 q 348 -15 400 -45 q 451 -75 482 -126 q 512 -177 512 -237 l 512 -237 l 512 -460 l 373 -460 l 373 -488 l 681 -488 l 681 -460 l 542 -460 l 542 0 l 512 0 l 512 -128 q 490 -67 426 -26 q 361 14 284 14 l 284 14 z"},"'":{"x_min":75,"x_max":108,"ha":183,"o":"m 75 -632 l 75 -810 l 108 -810 l 108 -632 l 75 -632 z"},"(":{"x_min":85,"x_max":308,"ha":333,"o":"m 308 87 q 204 -1 145 -120 q 85 -240 85 -368 l 85 -368 q 85 -496 144 -614 q 203 -733 308 -818 l 308 -818 l 308 -782 q 118 -608 118 -365 l 118 -365 q 118 -246 168 -140 q 217 -34 308 48 l 308 48 l 308 87 z"},")":{"x_min":25,"x_max":249,"ha":334,"o":"m 25 86 l 25 48 q 117 -33 167 -139 q 216 -246 216 -365 l 216 -365 q 216 -484 166 -591 q 116 -698 25 -779 l 25 -779 l 25 -809 l 29 -811 q 134 -727 192 -612 q 249 -497 249 -367 l 249 -367 q 249 -238 190 -119 q 130 -1 25 86 l 25 86 z"},"*":{"x_min":35,"x_max":278,"ha":313,"o":"m 278 -633 l 278 -609 l 187 -609 l 258 -541 l 238 -521 l 171 -590 l 171 -501 l 146 -501 l 146 -591 l 77 -521 l 59 -540 l 131 -609 l 35 -609 l 35 -633 l 126 -633 l 55 -703 l 72 -720 l 146 -646 l 146 -743 l 171 -743 l 171 -646 l 243 -721 l 261 -703 l 191 -633 l 278 -633 z"},"+":{"x_min":15,"x_max":326,"ha":341,"o":"m 155 -253 l 155 -387 l 15 -387 l 15 -418 l 155 -418 l 155 -557 l 188 -557 l 188 -418 l 326 -418 l 326 -387 l 188 -387 l 188 -253 l 155 -253 z"},",":{"x_min":34,"x_max":104,"ha":139,"o":"m 104 -26 l 104 -24 l 104 -24 q 104 -17 101 -8 l 101 -8 l 70 63 l 63 63 l 63 8 q 51 6 43 -3 q 34 -13 34 -26 l 34 -26 q 34 -40 45 -50 q 55 -60 69 -60 l 69 -60 q 83 -60 94 -50 q 104 -40 104 -26 l 104 -26 z"},"-":{"x_min":40,"x_max":351,"ha":391,"o":"m 40 -281 l 40 -312 l 351 -312 l 351 -281 l 40 -281 z"},".":{"x_min":34,"x_max":104,"ha":139,"o":"m 69 9 q 55 9 45 -1 q 34 -11 34 -26 l 34 -26 q 34 -40 45 -50 q 55 -60 69 -60 l 69 -60 q 83 -60 94 -50 q 104 -40 104 -26 l 104 -26 q 104 -11 94 -1 q 83 9 69 9 l 69 9 z"},"/":{"x_min":0,"x_max":596,"ha":596,"o":"m 0 0 l 557 -748 l 596 -748 l 37 0 l 0 0 z"},":":{"x_min":34,"x_max":104,"ha":139,"o":"m 69 9 q 55 9 45 -1 q 34 -11 34 -26 l 34 -26 q 34 -40 45 -50 q 55 -60 69 -60 l 69 -60 q 83 -60 94 -50 q 104 -40 104 -26 l 104 -26 q 104 -11 94 -1 q 83 9 69 9 l 69 9 z m 69 -256 q 55 -256 45 -266 q 34 -276 34 -291 l 34 -291 q 34 -305 45 -315 q 55 -325 69 -325 l 69 -325 q 83 -325 94 -315 q 104 -305 104 -291 l 104 -291 q 104 -276 94 -266 q 83 -256 69 -256 l 69 -256 z"},";":{"x_min":34,"x_max":104,"ha":138,"o":"m 69 -255 q 55 -255 45 -265 q 34 -275 34 -290 l 34 -290 q 34 -304 45 -314 q 55 -324 69 -324 l 69 -324 q 83 -324 94 -314 q 104 -304 104 -290 l 104 -290 q 104 -275 94 -265 q 83 -255 69 -255 l 69 -255 z m 104 -26 l 104 -24 l 104 -24 q 104 -17 101 -8 l 101 -8 l 70 63 l 63 63 l 63 8 q 51 6 43 -3 q 34 -13 34 -26 l 34 -26 q 34 -40 45 -50 q 55 -60 69 -60 l 69 -60 q 83 -60 94 -50 q 104 -40 104 -26 l 104 -26 z"},"<":{"x_min":75,"x_max":388,"ha":408,"o":"m 388 -606 l 388 -573 l 107 -408 l 388 -242 l 388 -209 l 75 -394 l 75 -423 l 388 -606 z"},"=":{"x_min":50,"x_max":361,"ha":411,"o":"m 50 -461 l 50 -490 l 361 -490 l 361 -461 l 50 -461 z m 50 -333 l 50 -362 l 361 -362 l 361 -333 l 50 -333 z"},">":{"x_min":75,"x_max":388,"ha":408,"o":"m 75 -606 l 388 -423 l 388 -394 l 75 -209 l 75 -242 l 356 -408 l 75 -573 l 75 -606 z"},"?":{"x_min":45,"x_max":561,"ha":646,"o":"m 290 -96 l 290 -290 l 304 -290 q 369 -290 421 -320 q 472 -350 501 -401 q 529 -453 529 -515 l 529 -515 q 529 -576 499 -625 q 469 -675 417 -704 q 365 -733 301 -733 l 301 -733 q 237 -733 188 -705 q 138 -678 110 -628 q 81 -578 79 -511 l 79 -511 l 45 -511 q 49 -585 82 -642 q 115 -699 173 -730 q 230 -762 303 -762 l 303 -762 q 375 -762 434 -728 q 493 -695 527 -639 q 561 -584 561 -520 l 561 -520 q 561 -451 531 -393 q 501 -336 447 -300 q 392 -265 322 -261 l 322 -261 l 322 -96 l 290 -96 z m 305 9 q 291 9 281 -1 q 270 -11 270 -26 l 270 -26 q 270 -40 281 -50 q 291 -60 305 -60 l 305 -60 q 319 -60 330 -50 q 340 -40 340 -26 l 340 -26 q 340 -11 330 -1 q 319 9 305 9 l 305 9 z"},"@":{"x_min":50,"x_max":830,"ha":880,"o":"m 432 13 q 331 13 243 -41 q 155 -95 103 -185 q 50 -275 50 -378 l 50 -378 q 50 -480 103 -569 q 156 -658 246 -710 q 336 -763 441 -763 l 441 -763 q 547 -763 636 -710 q 725 -658 778 -569 q 830 -481 830 -378 l 830 -378 q 830 -275 778 -184 q 726 -94 638 -40 q 549 13 447 13 l 447 13 l 432 13 z m 440 -16 q 536 -16 618 -65 q 700 -114 749 -196 q 797 -279 797 -376 l 797 -376 q 797 -472 749 -554 q 701 -637 619 -685 q 537 -734 441 -734 l 441 -734 q 344 -734 262 -685 q 180 -637 132 -554 q 83 -472 83 -376 l 83 -376 q 83 -279 132 -196 q 180 -114 262 -65 q 344 -16 440 -16 l 440 -16 z m 440 -139 q 376 -139 321 -171 q 266 -203 234 -257 q 202 -312 202 -375 l 202 -375 q 202 -438 234 -492 q 266 -547 321 -579 q 376 -611 440 -611 l 440 -611 q 502 -611 557 -580 q 612 -549 644 -495 l 644 -495 l 644 -600 l 676 -600 l 676 -150 l 644 -150 l 644 -255 q 612 -201 557 -170 q 502 -139 440 -139 l 440 -139 z m 442 -167 q 497 -167 544 -195 q 591 -224 619 -271 q 646 -319 646 -375 l 646 -375 q 646 -430 618 -478 q 590 -526 543 -554 q 496 -583 441 -583 l 441 -583 q 386 -583 339 -554 q 291 -525 263 -477 q 234 -429 234 -374 l 234 -374 q 234 -319 263 -271 q 291 -224 339 -195 q 387 -167 442 -167 l 442 -167 z"},"A":{"x_min":32,"x_max":781,"ha":813,"o":"m 406 -768 l 781 0 l 746 0 l 604 -286 l 206 -286 l 67 0 l 32 0 l 406 -768 z m 220 -315 l 592 -315 l 404 -696 l 220 -315 z"},"B":{"x_min":79,"x_max":362,"ha":403,"o":"m 79 0 l 79 -750 l 111 -750 q 190 -750 227 -713 q 264 -677 264 -606 l 264 -606 q 264 -565 240 -527 q 216 -490 182 -477 l 182 -477 q 268 -463 315 -405 q 362 -347 362 -253 l 362 -253 q 362 -178 329 -120 q 296 -63 239 -31 q 181 0 111 0 l 111 0 l 79 0 z m 111 -486 l 119 -486 q 167 -486 200 -521 q 233 -556 233 -607 l 233 -607 q 233 -664 206 -693 q 178 -722 119 -722 l 119 -722 l 111 -722 l 111 -486 z m 111 -28 l 119 -28 q 178 -28 226 -56 q 274 -85 302 -136 q 330 -187 330 -251 l 330 -251 q 330 -354 276 -406 q 221 -459 119 -459 l 119 -459 l 111 -459 l 111 -28 z"},"C":{"x_min":47,"x_max":640,"ha":703,"o":"m 431 20 q 326 20 238 -31 q 150 -83 99 -173 q 47 -264 47 -377 l 47 -377 q 47 -486 101 -576 q 154 -666 244 -718 q 333 -770 434 -770 l 434 -770 q 504 -770 545 -757 q 586 -745 640 -714 l 640 -714 l 640 -677 q 589 -712 546 -726 q 502 -741 437 -741 l 437 -741 q 338 -741 257 -690 q 175 -640 128 -555 q 80 -471 80 -374 l 80 -374 q 80 -276 128 -192 q 176 -108 256 -58 q 335 -9 427 -9 l 427 -9 q 493 -9 542 -24 q 591 -40 640 -73 l 640 -73 l 640 -36 q 592 -7 542 7 q 491 20 431 20 l 431 20 z"},"D":{"x_min":79,"x_max":485,"ha":532,"o":"m 79 0 l 79 -750 l 111 -750 q 290 -750 388 -652 q 485 -555 485 -375 l 485 -375 q 485 -272 435 -186 q 385 -100 300 -50 q 214 0 111 0 l 111 0 l 79 0 z m 111 -31 l 119 -31 q 211 -31 287 -76 q 363 -122 408 -201 q 452 -280 452 -375 l 452 -375 q 452 -541 366 -630 q 279 -720 119 -720 l 119 -720 l 111 -720 l 111 -31 z"},"E":{"x_min":79,"x_max":348,"ha":374,"o":"m 79 0 l 79 -750 l 348 -750 l 348 -721 l 112 -721 l 112 -313 l 309 -313 l 309 -284 l 112 -284 l 112 -29 l 348 -29 l 348 0 l 79 0 z"},"F":{"x_min":79,"x_max":346,"ha":372,"o":"m 79 0 l 79 -750 l 346 -750 l 346 -721 l 112 -721 l 112 -315 l 307 -315 l 307 -286 l 112 -286 l 112 0 l 79 0 z"},"G":{"x_min":47,"x_max":640,"ha":696,"o":"m 437 -741 q 338 -741 257 -690 q 175 -640 128 -555 q 80 -471 80 -374 l 80 -374 q 80 -276 128 -192 q 176 -108 256 -58 q 335 -9 427 -9 l 427 -9 q 481 -9 524 -19 q 566 -29 605 -51 l 605 -51 l 605 -286 l 357 -286 l 357 -315 l 638 -315 l 638 -72 l 640 -73 l 640 -36 q 592 -7 542 7 q 491 20 431 20 l 431 20 q 326 20 238 -31 q 150 -83 99 -173 q 47 -264 47 -377 l 47 -377 q 47 -486 101 -576 q 154 -666 244 -718 q 333 -770 434 -770 l 434 -770 q 504 -770 545 -757 q 586 -745 640 -714 l 640 -714 l 640 -677 q 589 -712 546 -726 q 502 -741 437 -741 l 437 -741 z"},"H":{"x_min":79,"x_max":659,"ha":738,"o":"m 79 0 l 79 -750 l 112 -750 l 112 -315 l 626 -315 l 626 -750 l 659 -750 l 659 0 l 626 0 l 626 -286 l 112 -286 l 112 0 l 79 0 z"},"I":{"x_min":84,"x_max":117,"ha":201,"o":"m 84 0 l 84 -750 l 117 -750 l 117 0 l 84 0 z"},"J":{"x_min":21,"x_max":393,"ha":472,"o":"m 176 15 q 131 15 94 2 q 56 -12 21 -42 l 21 -42 l 21 -83 q 84 -14 178 -14 l 178 -14 q 264 -14 312 -67 q 360 -121 360 -226 l 360 -226 l 360 -721 l 175 -721 l 175 -750 l 393 -750 l 393 -230 q 393 -110 335 -47 q 277 15 176 15 l 176 15 z"},"K":{"x_min":79,"x_max":553,"ha":577,"o":"m 553 0 l 509 0 l 112 -417 l 112 0 l 79 0 l 79 -750 l 112 -750 l 112 -478 l 425 -750 l 472 -750 l 121 -450 l 553 0 z"},"L":{"x_min":79,"x_max":344,"ha":365,"o":"m 79 0 l 79 -750 l 112 -750 l 112 -29 l 344 -29 l 344 0 l 79 0 z"},"M":{"x_min":76,"x_max":848,"ha":927,"o":"m 802 -750 l 848 -750 l 848 0 l 815 0 l 815 -702 l 461 14 l 109 -711 l 109 0 l 76 0 l 76 -750 l 123 -750 l 461 -54 l 802 -750 z"},"N":{"x_min":79,"x_max":660,"ha":739,"o":"m 660 11 l 108 -675 l 108 0 l 79 0 l 79 -761 l 631 -76 l 631 -750 l 660 -750 l 660 11 z"},"O":{"x_min":47,"x_max":827,"ha":874,"o":"m 437 20 q 332 20 242 -35 q 152 -90 100 -181 q 47 -273 47 -378 l 47 -378 q 47 -482 100 -572 q 153 -663 243 -716 q 333 -770 438 -770 l 438 -770 q 544 -770 633 -717 q 722 -664 775 -573 q 827 -483 827 -378 l 827 -378 q 827 -270 775 -178 q 722 -87 633 -33 q 543 20 437 20 l 437 20 z m 437 -9 q 533 -9 615 -58 q 697 -108 746 -192 q 794 -277 794 -376 l 794 -376 q 794 -474 746 -558 q 698 -642 616 -691 q 534 -741 438 -741 l 438 -741 q 341 -741 259 -691 q 177 -642 129 -558 q 80 -474 80 -376 l 80 -376 q 80 -277 129 -192 q 177 -108 259 -58 q 341 -9 437 -9 l 437 -9 z"},"P":{"x_min":78,"x_max":361,"ha":396,"o":"m 78 0 l 78 -750 l 111 -750 q 229 -750 295 -687 q 361 -625 361 -520 l 361 -520 q 361 -447 329 -390 q 297 -334 242 -303 q 187 -273 119 -273 l 119 -273 l 111 -273 l 111 0 l 78 0 z m 111 -302 l 121 -302 q 212 -302 270 -358 q 328 -415 328 -518 l 328 -518 q 328 -616 274 -668 q 219 -721 119 -721 l 119 -721 l 111 -721 l 111 -302 z"},"Q":{"x_min":49,"x_max":829,"ha":874,"o":"m 829 -378 q 829 -284 789 -202 q 749 -120 679 -64 l 679 -64 l 756 12 l 712 12 l 654 -46 q 557 20 439 20 l 439 20 q 334 20 244 -35 q 154 -90 102 -181 q 49 -273 49 -378 l 49 -378 q 49 -482 102 -572 q 155 -663 245 -716 q 335 -770 440 -770 l 440 -770 q 546 -770 635 -717 q 724 -664 777 -573 q 829 -483 829 -378 l 829 -378 z m 439 -9 q 543 -9 632 -68 l 632 -68 l 455 -243 l 498 -243 l 657 -86 q 721 -138 759 -214 q 796 -290 796 -376 l 796 -376 q 796 -474 748 -558 q 700 -642 618 -691 q 536 -741 440 -741 l 440 -741 q 343 -741 261 -691 q 179 -642 131 -558 q 82 -474 82 -376 l 82 -376 q 82 -277 131 -192 q 179 -108 261 -58 q 343 -9 439 -9 l 439 -9 z"},"R":{"x_min":79,"x_max":381,"ha":413,"o":"m 79 0 l 79 -750 l 122 -750 q 239 -750 303 -688 q 366 -626 366 -511 l 366 -511 q 366 -445 335 -390 q 303 -335 249 -303 q 195 -272 130 -272 l 130 -272 l 123 -272 l 381 0 l 338 0 l 111 -238 l 111 0 l 79 0 z m 111 -301 l 129 -301 q 186 -301 233 -329 q 280 -357 307 -404 q 334 -452 334 -510 l 334 -510 q 334 -611 280 -666 q 225 -721 124 -721 l 124 -721 l 111 -721 l 111 -301 z"},"S":{"x_min":42,"x_max":460,"ha":502,"o":"m 236 14 q 111 14 42 -89 l 42 -89 l 42 -143 q 69 -83 121 -49 q 172 -15 244 -15 l 244 -15 q 294 -15 337 -37 q 379 -59 404 -99 q 429 -139 429 -191 l 429 -191 q 429 -238 413 -272 q 397 -306 360 -337 q 323 -369 253 -412 l 253 -412 l 221 -432 q 177 -459 150 -480 q 123 -501 103 -529 l 103 -529 q 77 -568 77 -619 l 77 -619 q 77 -687 121 -725 q 165 -763 233 -763 l 233 -763 q 325 -763 379 -695 l 379 -695 l 379 -644 q 356 -686 316 -710 q 276 -734 228 -734 l 228 -734 q 178 -734 144 -703 q 110 -672 110 -620 l 110 -620 q 110 -569 142 -532 q 173 -496 248 -453 l 248 -453 q 340 -399 391 -355 l 391 -355 q 427 -322 444 -282 q 460 -242 460 -193 l 460 -193 q 460 -131 431 -84 q 402 -37 351 -11 q 300 14 236 14 l 236 14 z"},"T":{"x_min":21,"x_max":398,"ha":419,"o":"m 194 0 l 194 -721 l 21 -721 l 21 -750 l 398 -750 l 398 -721 l 227 -721 l 227 0 l 194 0 z"},"U":{"x_min":79,"x_max":526,"ha":605,"o":"m 304 20 q 239 20 188 -7 q 137 -35 108 -86 q 79 -137 79 -205 l 79 -205 l 79 -750 l 112 -750 l 112 -206 q 112 -146 137 -101 q 162 -57 206 -33 q 249 -9 303 -9 l 303 -9 q 357 -9 401 -32 q 444 -56 469 -100 q 493 -145 493 -206 l 493 -206 l 493 -750 l 526 -750 l 526 -207 q 526 -138 498 -86 q 470 -35 420 -7 q 369 20 304 20 l 304 20 z"},"V":{"x_min":0,"x_max":686,"ha":686,"o":"m 652 -750 l 686 -750 l 343 17 l 0 -750 l 36 -750 l 346 -59 l 652 -750 z"},"W":{"x_min":0,"x_max":980,"ha":980,"o":"m 980 -750 l 647 13 l 489 -354 l 329 13 l 0 -750 l 35 -750 l 330 -68 l 472 -394 l 318 -750 l 352 -750 l 492 -427 l 633 -750 l 664 -750 l 508 -390 l 649 -65 l 945 -750 l 980 -750 z"},"X":{"x_min":19,"x_max":466,"ha":487,"o":"m 466 0 l 429 0 l 241 -387 l 52 0 l 19 0 l 222 -418 l 56 -750 l 94 -750 l 240 -452 l 385 -750 l 420 -750 l 260 -422 l 466 0 z"},"Y":{"x_min":0,"x_max":484,"ha":484,"o":"m 450 -750 l 484 -750 l 261 -300 l 261 0 l 228 0 l 228 -300 l 0 -750 l 36 -750 l 245 -339 l 450 -750 z"},"Z":{"x_min":26,"x_max":406,"ha":429,"o":"m 26 0 l 356 -721 l 26 -721 l 26 -750 l 406 -750 l 75 -29 l 403 -29 l 403 0 l 26 0 z"},"[":{"x_min":72,"x_max":200,"ha":215,"o":"m 72 83 l 72 -816 l 200 -816 l 200 -787 l 105 -787 l 105 54 l 200 54 l 200 83 l 72 83 z"},"\\":{"x_min":0,"x_max":596,"ha":596,"o":"m 558 0 l 0 -748 l 38 -748 l 596 0 l 558 0 z"},"]":{"x_min":15,"x_max":145,"ha":215,"o":"m 15 83 l 15 54 l 112 54 l 112 -787 l 15 -787 l 15 -816 l 145 -816 l 145 83 l 15 83 z"},"^":{"x_min":15,"x_max":315,"ha":330,"o":"m 15 -540 l 155 -679 l 177 -679 l 315 -540 l 274 -540 l 166 -648 l 57 -540 l 15 -540 z"},"_":{"x_min":25,"x_max":333,"ha":358,"o":"m 25 0 l 25 -31 l 333 -31 l 333 0 l 25 0 z"},"`":{"x_min":15,"x_max":196,"ha":211,"o":"m 154 -529 l 15 -644 l 56 -644 l 196 -529 l 154 -529 z"},"a":{"x_min":37,"x_max":511,"ha":574,"o":"m 275 11 q 211 11 156 -21 q 101 -53 69 -107 q 37 -162 37 -225 l 37 -225 q 37 -288 69 -342 q 101 -397 156 -429 q 211 -461 275 -461 l 275 -461 q 340 -461 398 -426 q 456 -392 479 -337 l 479 -337 l 479 -450 l 511 -450 l 511 0 l 479 0 l 479 -112 q 452 -56 396 -22 q 339 11 275 11 l 275 11 z m 277 -17 q 332 -17 379 -45 q 426 -74 454 -121 q 481 -169 481 -225 l 481 -225 q 481 -280 453 -328 q 425 -376 378 -404 q 331 -433 276 -433 l 276 -433 q 221 -433 174 -404 q 126 -375 98 -327 q 69 -279 69 -224 l 69 -224 q 69 -169 98 -121 q 126 -74 174 -45 q 222 -17 277 -17 l 277 -17 z"},"b":{"x_min":63,"x_max":537,"ha":574,"o":"m 299 11 q 238 11 182 -22 q 125 -55 95 -109 l 95 -109 l 95 0 l 63 0 l 63 -750 l 95 -750 l 95 -336 q 122 -393 179 -427 q 236 -461 299 -461 l 299 -461 q 364 -461 419 -429 q 473 -397 505 -343 q 537 -289 537 -225 l 537 -225 q 537 -161 505 -107 q 473 -53 419 -21 q 364 11 299 11 l 299 11 z m 301 -17 q 356 -17 403 -45 q 450 -74 478 -121 q 505 -169 505 -225 l 505 -225 q 505 -280 477 -328 q 449 -376 402 -404 q 355 -433 300 -433 l 300 -433 q 245 -433 198 -404 q 150 -375 122 -327 q 93 -279 93 -224 l 93 -224 q 93 -169 122 -121 q 150 -74 198 -45 q 246 -17 301 -17 l 301 -17 z"},"c":{"x_min":37,"x_max":453,"ha":479,"o":"m 275 13 q 210 13 156 -18 q 101 -49 69 -103 q 37 -157 37 -225 l 37 -225 q 37 -288 69 -341 q 101 -395 157 -427 q 212 -459 279 -459 l 279 -459 q 335 -459 375 -441 q 415 -423 453 -385 l 453 -385 l 453 -331 q 420 -380 380 -405 q 339 -431 279 -431 l 279 -431 q 224 -431 176 -402 q 127 -374 98 -326 q 69 -278 69 -223 l 69 -223 q 69 -163 97 -115 q 125 -68 173 -41 q 220 -15 275 -15 l 275 -15 q 387 -15 453 -116 l 453 -116 l 453 -62 q 417 -24 374 -5 q 330 13 275 13 l 275 13 z"},"d":{"x_min":37,"x_max":511,"ha":574,"o":"m 275 11 q 210 11 156 -21 q 101 -53 69 -107 q 37 -161 37 -225 l 37 -225 q 37 -289 69 -343 q 101 -397 156 -429 q 210 -461 275 -461 l 275 -461 q 338 -461 395 -427 q 452 -394 479 -340 l 479 -340 l 479 -750 l 511 -750 l 511 0 l 479 0 l 479 -109 q 449 -55 393 -22 q 336 11 275 11 l 275 11 z m 274 -17 q 329 -17 377 -45 q 424 -74 453 -121 q 481 -169 481 -224 l 481 -224 q 481 -279 453 -327 q 424 -375 377 -404 q 329 -433 274 -433 l 274 -433 q 219 -433 172 -404 q 125 -376 97 -328 q 69 -280 69 -225 l 69 -225 q 69 -169 97 -121 q 124 -74 172 -45 q 219 -17 274 -17 l 274 -17 z"},"e":{"x_min":42,"x_max":462,"ha":499,"o":"m 282 -16 q 334 -16 381 -43 q 428 -70 459 -117 l 459 -117 l 459 -66 q 422 -25 378 -6 q 334 12 278 12 l 278 12 q 216 12 162 -21 q 107 -54 75 -109 q 42 -164 42 -226 l 42 -226 q 42 -293 74 -346 q 106 -400 162 -430 q 217 -460 285 -460 l 285 -460 q 389 -460 462 -378 l 462 -378 l 148 -68 q 181 -41 212 -28 q 243 -16 282 -16 l 282 -16 z m 74 -229 q 74 -146 129 -87 l 129 -87 l 422 -378 q 389 -407 358 -419 q 327 -432 284 -432 l 284 -432 q 223 -432 176 -405 q 128 -379 101 -333 q 74 -287 74 -229 l 74 -229 z"},"f":{"x_min":63,"x_max":234,"ha":256,"o":"m 234 -610 q 196 -610 164 -591 q 132 -573 114 -540 q 95 -508 95 -469 l 95 -469 l 95 -450 l 234 -450 l 234 -422 l 95 -422 l 95 0 l 63 0 l 63 -469 q 63 -516 86 -554 q 108 -593 148 -615 q 187 -638 234 -638 l 234 -638 l 234 -610 z"},"g":{"x_min":37,"x_max":512,"ha":575,"o":"m 280 208 q 223 208 169 182 q 115 156 85 114 l 85 114 l 85 68 q 111 116 167 148 q 222 180 280 180 l 280 180 q 376 180 428 124 q 480 67 480 -42 l 480 -42 l 480 -109 q 453 -55 396 -21 q 338 12 275 12 l 275 12 q 211 12 156 -20 q 101 -52 69 -106 q 37 -161 37 -224 l 37 -224 q 37 -287 69 -341 q 101 -396 156 -428 q 211 -460 275 -460 l 275 -460 q 341 -460 397 -427 q 453 -394 480 -338 l 480 -338 l 480 -450 l 512 -450 l 512 -42 q 512 81 453 145 q 393 208 280 208 l 280 208 z m 277 -16 q 332 -16 379 -44 q 426 -73 454 -120 q 481 -168 481 -224 l 481 -224 q 481 -280 454 -327 q 426 -375 379 -403 q 332 -432 277 -432 l 277 -432 q 221 -432 174 -403 q 126 -375 98 -327 q 69 -280 69 -224 l 69 -224 q 69 -168 98 -120 q 126 -73 174 -44 q 221 -16 277 -16 l 277 -16 z"},"h":{"x_min":63,"x_max":467,"ha":530,"o":"m 63 0 l 63 -750 l 95 -750 l 95 -357 q 116 -402 167 -431 q 217 -461 269 -461 l 269 -461 q 364 -461 416 -409 q 467 -357 467 -262 l 467 -262 l 467 0 l 435 0 l 435 -262 q 435 -344 392 -388 q 348 -433 269 -433 l 269 -433 q 221 -433 181 -410 q 141 -388 118 -348 q 95 -309 95 -262 l 95 -262 l 95 0 l 63 0 z"},"i":{"x_min":67,"x_max":137,"ha":204,"o":"m 102 -553 q 88 -553 78 -563 q 67 -573 67 -588 l 67 -588 q 67 -602 78 -612 q 88 -622 102 -622 l 102 -622 q 116 -622 127 -612 q 137 -602 137 -588 l 137 -588 q 137 -573 127 -563 q 116 -553 102 -553 l 102 -553 z m 86 0 l 86 -450 l 118 -450 l 118 0 l 86 0 z"},"j":{"x_min":-32,"x_max":162,"ha":230,"o":"m 127 -553 q 113 -553 103 -563 q 92 -573 92 -588 l 92 -588 q 92 -602 103 -612 q 113 -622 127 -622 l 127 -622 q 141 -622 152 -612 q 162 -602 162 -588 l 162 -588 q 162 -573 152 -563 q 141 -553 127 -553 l 127 -553 z m -32 198 l -32 170 q 28 170 69 130 q 110 89 110 29 l 110 29 l 110 -450 l 142 -450 l 142 29 q 142 77 119 116 q 96 155 56 177 q 16 198 -32 198 l -32 198 z"},"k":{"x_min":63,"x_max":366,"ha":376,"o":"m 63 0 l 63 -748 l 95 -748 l 95 -294 l 273 -450 l 314 -450 l 108 -270 l 366 0 l 323 0 l 95 -240 l 95 0 l 63 0 z"},"l":{"x_min":63,"x_max":234,"ha":274,"o":"m 234 9 q 187 9 148 -12 q 109 -34 86 -73 q 63 -112 63 -160 l 63 -160 l 63 -750 l 95 -750 l 95 -160 q 95 -120 114 -88 q 132 -56 164 -37 q 196 -19 234 -19 l 234 -19 l 234 9 z"},"m":{"x_min":63,"x_max":689,"ha":752,"o":"m 63 0 l 63 -450 l 95 -450 l 95 -382 q 141 -461 243 -461 l 243 -461 q 292 -461 328 -433 q 364 -406 378 -351 l 378 -351 q 391 -400 436 -430 q 480 -461 536 -461 l 536 -461 q 609 -461 649 -418 q 689 -376 689 -298 l 689 -298 l 689 0 l 657 0 l 657 -298 q 657 -361 625 -397 q 592 -433 539 -433 l 539 -433 q 499 -433 465 -413 q 431 -394 411 -361 q 391 -328 391 -288 l 391 -288 l 391 0 l 359 0 l 359 -280 q 359 -352 325 -392 q 291 -433 237 -433 l 237 -433 q 201 -433 169 -415 q 136 -397 116 -366 q 95 -336 95 -300 l 95 -300 l 95 0 l 63 0 z"},"n":{"x_min":63,"x_max":467,"ha":530,"o":"m 63 0 l 63 -450 l 95 -450 l 95 -350 q 117 -400 170 -430 q 223 -461 287 -461 l 287 -461 q 370 -461 419 -408 q 467 -356 467 -262 l 467 -262 l 467 0 l 435 0 l 435 -262 q 435 -343 396 -388 q 356 -433 285 -433 l 285 -433 q 233 -433 190 -409 q 146 -386 121 -345 q 95 -304 95 -252 l 95 -252 l 95 0 l 63 0 z"},"o":{"x_min":37,"x_max":513,"ha":550,"o":"m 277 16 q 209 16 154 -17 q 99 -51 68 -106 q 37 -162 37 -227 l 37 -227 q 37 -291 69 -346 q 100 -401 155 -433 q 209 -466 276 -466 l 276 -466 q 342 -466 397 -433 q 451 -401 482 -346 q 513 -291 513 -227 l 513 -227 q 513 -160 483 -104 q 453 -49 400 -16 q 346 16 277 16 l 277 16 z m 277 -12 q 334 -12 381 -41 q 428 -70 455 -118 q 481 -167 481 -225 l 481 -225 q 481 -282 454 -331 q 427 -380 380 -409 q 333 -438 276 -438 l 276 -438 q 219 -438 172 -408 q 124 -379 97 -330 q 69 -281 69 -224 l 69 -224 q 69 -167 97 -118 q 124 -70 172 -41 q 219 -12 277 -12 l 277 -12 z"},"p":{"x_min":63,"x_max":537,"ha":574,"o":"m 63 200 l 63 -450 l 95 -450 l 95 -340 q 122 -394 179 -427 q 236 -461 299 -461 l 299 -461 q 364 -461 419 -429 q 473 -397 505 -343 q 537 -289 537 -225 l 537 -225 q 537 -161 505 -107 q 473 -53 419 -21 q 364 11 299 11 l 299 11 q 238 11 182 -22 q 125 -55 95 -109 l 95 -109 l 95 200 l 63 200 z m 301 -17 q 356 -17 403 -45 q 450 -74 478 -121 q 505 -169 505 -225 l 505 -225 q 505 -280 477 -328 q 449 -376 402 -404 q 355 -433 300 -433 l 300 -433 q 245 -433 198 -404 q 150 -375 122 -327 q 93 -279 93 -224 l 93 -224 q 93 -169 122 -121 q 150 -74 198 -45 q 246 -17 301 -17 l 301 -17 z"},"q":{"x_min":37,"x_max":511,"ha":574,"o":"m 479 200 l 479 -112 q 452 -56 396 -22 q 339 11 275 11 l 275 11 q 211 11 156 -21 q 101 -53 69 -107 q 37 -162 37 -225 l 37 -225 q 37 -288 69 -342 q 101 -397 156 -429 q 211 -461 275 -461 l 275 -461 q 340 -461 398 -426 q 456 -392 479 -337 l 479 -337 l 479 -450 l 511 -450 l 511 200 l 479 200 z m 277 -17 q 332 -17 379 -45 q 426 -74 454 -121 q 481 -169 481 -225 l 481 -225 q 481 -280 453 -328 q 425 -376 378 -404 q 331 -433 276 -433 l 276 -433 q 221 -433 174 -404 q 126 -375 98 -327 q 69 -279 69 -224 l 69 -224 q 69 -169 98 -121 q 126 -74 174 -45 q 222 -17 277 -17 l 277 -17 z"},"r":{"x_min":63,"x_max":304,"ha":320,"o":"m 63 0 l 63 -450 l 95 -450 l 95 -346 q 115 -395 154 -423 q 192 -451 241 -451 l 241 -451 q 272 -451 304 -438 l 304 -438 l 304 -401 q 275 -423 239 -423 l 239 -423 q 203 -423 170 -401 q 136 -379 116 -342 q 95 -305 95 -263 l 95 -263 l 95 0 l 63 0 z"},"s":{"x_min":34,"x_max":311,"ha":348,"o":"m 172 11 q 124 11 87 -5 q 50 -22 34 -48 l 34 -48 l 34 -101 q 53 -58 86 -37 q 119 -17 170 -17 l 170 -17 q 219 -17 249 -47 q 279 -78 279 -126 l 279 -126 q 279 -167 262 -189 q 245 -212 207 -235 l 207 -235 l 169 -257 q 128 -282 108 -296 q 87 -311 75 -329 q 63 -348 63 -373 l 63 -373 q 63 -413 91 -437 q 119 -461 164 -461 l 164 -461 q 219 -461 256 -436 l 256 -436 l 256 -392 q 225 -433 167 -433 l 167 -433 q 135 -433 115 -417 q 95 -401 95 -376 l 95 -376 q 95 -354 107 -337 q 119 -321 141 -307 q 162 -293 212 -265 l 212 -265 q 263 -236 287 -205 q 311 -175 311 -126 l 311 -126 q 311 -64 271 -26 q 230 11 172 11 l 172 11 z"},"t":{"x_min":53,"x_max":224,"ha":245,"o":"m 224 6 q 150 6 102 -39 q 53 -84 53 -163 l 53 -163 l 53 -631 l 85 -631 l 85 -450 l 223 -450 l 223 -422 l 85 -422 l 85 -163 q 85 -97 125 -59 q 164 -22 224 -22 l 224 -22 l 224 6 z"},"u":{"x_min":63,"x_max":467,"ha":530,"o":"m 261 11 q 166 11 115 -41 q 63 -93 63 -188 l 63 -188 l 63 -450 l 95 -450 l 95 -188 q 95 -106 139 -61 q 182 -17 261 -17 l 261 -17 q 309 -17 349 -38 q 389 -60 412 -99 q 435 -138 435 -188 l 435 -188 l 435 -450 l 467 -450 l 467 0 l 435 0 l 435 -84 q 412 -42 366 -15 q 320 11 261 11 l 261 11 z"},"v":{"x_min":5,"x_max":448,"ha":453,"o":"m 413 -450 l 448 -450 l 227 13 l 5 -450 l 40 -450 l 227 -60 l 413 -450 z"},"w":{"x_min":5,"x_max":639,"ha":644,"o":"m 639 -449 l 426 11 l 324 -207 l 221 11 l 5 -450 l 38 -450 l 222 -59 l 309 -242 l 213 -448 l 245 -448 l 325 -274 l 407 -450 l 439 -450 l 341 -241 l 426 -58 l 607 -449 l 639 -449 z"},"x":{"x_min":22,"x_max":417,"ha":435,"o":"m 417 0 l 380 0 l 216 -247 l 54 0 l 22 0 l 197 -266 l 75 -450 l 112 -450 l 215 -294 l 317 -450 l 349 -450 l 234 -275 l 417 0 z"},"y":{"x_min":53,"x_max":457,"ha":510,"o":"m 249 199 q 137 199 72 119 l 72 119 l 72 68 q 105 120 147 146 q 189 171 245 171 l 245 171 q 302 171 343 147 q 383 123 404 82 q 425 40 425 -11 l 425 -11 l 425 -87 q 401 -40 353 -14 q 304 11 247 11 l 247 11 q 190 11 146 -14 q 102 -39 78 -84 q 53 -129 53 -188 l 53 -188 l 53 -450 l 85 -450 l 85 -188 q 85 -134 108 -95 q 130 -57 167 -37 q 204 -17 248 -17 l 248 -17 q 296 -17 337 -40 q 378 -64 402 -103 q 425 -143 425 -188 l 425 -188 l 425 -450 l 457 -450 l 457 -14 q 457 46 433 95 q 408 143 361 171 q 314 199 249 199 l 249 199 z"},"z":{"x_min":26,"x_max":339,"ha":365,"o":"m 26 0 l 282 -422 l 53 -422 l 53 -450 l 339 -450 l 82 -28 l 336 -28 l 336 0 l 26 0 z"},"{":{"x_min":34,"x_max":237,"ha":257,"o":"m 237 75 q 192 54 163 12 q 134 -30 134 -77 l 134 -77 l 134 -246 q 134 -290 105 -326 q 76 -363 34 -375 l 34 -375 q 76 -387 105 -424 q 134 -462 134 -506 l 134 -506 l 134 -667 q 134 -713 163 -754 q 191 -795 237 -817 l 237 -817 l 237 -787 q 205 -771 186 -739 q 167 -707 167 -667 l 167 -667 l 167 -506 q 167 -466 150 -431 q 132 -396 100 -375 l 100 -375 q 167 -332 167 -246 l 167 -246 l 167 -77 q 167 -38 186 -5 q 204 27 237 45 l 237 45 l 237 75 z"},"|":{"x_min":75,"x_max":108,"ha":183,"o":"m 75 0 l 75 -748 l 108 -748 l 108 0 l 75 0 z"},"}":{"x_min":20,"x_max":223,"ha":257,"o":"m 20 75 l 20 45 q 92 6 92 -77 l 92 -77 l 92 -246 q 92 -332 158 -375 l 158 -375 q 128 -395 110 -431 q 92 -467 92 -506 l 92 -506 l 92 -667 q 92 -707 73 -739 q 53 -771 20 -787 l 20 -787 l 20 -817 q 67 -795 96 -754 q 125 -713 125 -667 l 125 -667 l 125 -506 q 125 -464 154 -425 q 183 -387 223 -375 l 223 -375 q 182 -363 154 -326 q 125 -289 125 -246 l 125 -246 l 125 -77 q 125 -31 95 12 q 65 55 20 75 l 20 75 z"},"~":{"x_min":50,"x_max":433,"ha":483,"o":"m 346 -314 q 321 -314 299 -323 q 276 -332 245 -351 l 245 -351 q 213 -369 193 -377 q 173 -386 149 -386 l 149 -386 q 118 -386 95 -368 q 71 -351 50 -316 l 50 -316 l 50 -370 q 72 -392 95 -403 q 117 -415 146 -415 l 146 -415 q 174 -415 197 -405 q 220 -396 254 -377 l 254 -377 q 282 -360 303 -351 q 323 -343 345 -343 l 345 -343 q 371 -343 392 -358 q 412 -374 433 -408 l 433 -408 l 433 -357 q 412 -335 392 -324 q 371 -314 346 -314 l 346 -314 z"}}}
